<svg version="1.1" xmlns="http://www.w3.org/2000/svg" width="30" height="27" viewBox="0 0 137 120" fill="#fafafa">
  <path
    d="M0 0 C1.71067387 1.19670459 3.39968508 2.42513971 5.0625 3.6875 C5.83980469 4.25984375 6.61710937 4.8321875 7.41796875 5.421875 C18.16732537 14.08056501 25.17225747 27.07876715 27.8125 40.5 C27.92603984 41.89370149 28.00478734 43.29037281 28.0625 44.6875 C28.1140625 45.71488281 28.165625 46.74226563 28.21875 47.80078125 C28.72486604 66.75904473 22.91871373 80.27788559 11.0625 94.6875 C11.90546631 94.68226318 12.74843262 94.67702637 13.61694336 94.67163086 C16.73477936 94.65462174 19.85259177 94.64206594 22.97045898 94.63256836 C24.32170386 94.62752943 25.67294326 94.62069823 27.02416992 94.61206055 C28.96270434 94.59997581 30.901278 94.59480172 32.83984375 94.58984375 C34.59155884 94.58198853 34.59155884 94.58198853 36.37866211 94.57397461 C39.0625 94.6875 39.0625 94.6875 40.0625 95.6875 C40.13563567 98.21799402 40.15497527 100.72054837 40.125 103.25 C40.12048828 103.96091797 40.11597656 104.67183594 40.11132812 105.40429688 C40.09950864 107.16540013 40.08157263 108.92646036 40.0625 110.6875 C28.94374128 110.8038464 17.82512969 110.89244364 6.70588398 110.94656086 C1.54157675 110.97254722 -3.62231104 111.00774292 -8.78637695 111.06469727 C-13.77904641 111.11941062 -18.77131489 111.14900276 -23.76426125 111.16188622 C-25.65989294 111.17105602 -27.5555051 111.18896081 -29.45096397 111.21615028 C-47.32630936 111.46214031 -61.49572161 107.64818005 -75.0625 95.125 C-85.05665143 84.47279744 -91.84720646 71.40646285 -92.9375 56.6875 C-93.03224609 55.56601563 -93.03224609 55.56601563 -93.12890625 54.421875 C-93.88391619 38.15262865 -88.12127474 23.73778185 -77.6875 11.4375 C-57.2612559 -10.13122894 -25.69749396 -15.49669069 0 0 Z M-65.3125 22 C-73.74322408 32.17560755 -77.05220667 43.59412011 -75.9375 56.6875 C-74.04001117 68.99725947 -68.55056489 78.74479036 -58.9375 86.6875 C-50.39424382 92.80926 -42.3985837 95.07756829 -32 95 C-30.80987305 94.99154053 -30.80987305 94.99154053 -29.59570312 94.98291016 C-18.83547631 94.75929227 -9.71205217 90.89148313 -1.64453125 83.62109375 C0.28310732 81.86749477 0.28310732 81.86749477 0.0625 79.6875 C0.7225 79.6875 1.3825 79.6875 2.0625 79.6875 C3.56370481 77.7520176 3.56370481 77.7520176 5 75.25 C5.50402344 74.42628906 6.00804688 73.60257812 6.52734375 72.75390625 C10.0730173 65.67158123 11.60357417 59.22297711 11.5 51.3125 C11.49097656 50.48105469 11.48195313 49.64960937 11.47265625 48.79296875 C11.14534097 37.13690798 6.87525564 28.34888255 -0.9375 19.6875 C-10.66948672 11.11635484 -21.85425846 7.30747162 -34.6875 7.48046875 C-46.95375798 8.26185297 -56.86989772 13.06728411 -65.3125 22 Z "
    transform="translate(94.9375,9.3125)"
  ></path>
  <path
    d="M0 0 C6.15234375 -0.09765625 6.15234375 -0.09765625 8 0 C9 1 9 1 9.09765625 4.16015625 C9.08605469 5.44792969 9.07445313 6.73570313 9.0625 8.0625 C9.05347656 9.35285156 9.04445313 10.64320312 9.03515625 11.97265625 C9.02355469 12.97167969 9.01195313 13.97070312 9 15 C9.99902344 14.98839844 10.99804688 14.97679687 12.02734375 14.96484375 C13.31769531 14.95582031 14.60804687 14.94679688 15.9375 14.9375 C17.22527344 14.92589844 18.51304688 14.91429687 19.83984375 14.90234375 C23 15 23 15 24 16 C24.125 19.5 24.125 19.5 24 23 C23 24 23 24 19.83984375 24.09765625 C18.55207031 24.08605469 17.26429687 24.07445313 15.9375 24.0625 C14.64714844 24.05347656 13.35679688 24.04445313 12.02734375 24.03515625 C11.02832031 24.02355469 10.02929688 24.01195313 9 24 C9.01160156 24.91523437 9.02320312 25.83046875 9.03515625 26.7734375 C9.04417969 27.96195313 9.05320312 29.15046875 9.0625 30.375 C9.07410156 31.55835937 9.08570312 32.74171875 9.09765625 33.9609375 C9 37 9 37 8 39 C5.36 39 2.72 39 0 39 C0 34.05 0 29.1 0 24 C-4.89153471 24.0395679 -4.89153471 24.0395679 -9.78295898 24.09008789 C-11.52221717 24.09724913 -13.26145304 24.05024702 -15 24 C-16 23 -16 23 -16.125 19.5 C-16 16 -16 16 -15 15 C-12.4672235 14.92679837 -9.96896082 14.90772431 -7.4375 14.9375 C-4.983125 14.958125 -2.52875 14.97875 0 15 C0 10.05 0 5.1 0 0 Z "
    transform="translate(58,42)"
  ></path>
</svg>
